<svg xmlns="http://www.w3.org/2000/svg" xmlns:xlink="http://www.w3.org/1999/xlink" width="250" height="83" viewBox="0 0 250 83">
    <defs>
        <path id="d9kos38cta" d="M0.476 0.533L242.667 0.533 242.667 77 0.476 77z"/>
        <path id="6rurnk92wc" d="M0 82.767L249.668 82.767 249.668 0 0 0z"/>
    </defs>
    <g fill="none" fill-rule="evenodd">
        <g>
            <g transform="translate(-835 -5576) translate(835 5576)">
                <g transform="translate(7 5.767)">
                    <mask id="eqoiqjrgqb" fill="#fff">
                        <use xlink:href="#d9kos38cta"/>
                    </mask>
                    <path fill="#000" d="M235.897 77H7.246c-3.74 0-6.77-3.032-6.77-6.771V7.304c0-3.74 3.03-6.771 6.77-6.771h228.65c3.74 0 6.771 3.032 6.771 6.77V70.23c0 3.74-3.03 6.771-6.77 6.771" mask="url(#eqoiqjrgqb)"/>
                </g>
                <path fill="#DD2326" d="M236.683 77.729H8.032c-3.74 0-6.77-3.032-6.77-6.771V8.033c0-3.74 3.03-6.772 6.77-6.772h228.65c3.74 0 6.771 3.031 6.771 6.772v62.925c0 3.739-3.03 6.77-6.77 6.77"/>
                <path stroke="#000" stroke-width="2.523" d="M236.683 77.729H8.032c-3.74 0-6.77-3.032-6.77-6.771V8.033c0-3.74 3.03-6.772 6.77-6.772h228.65c3.74 0 6.771 3.031 6.771 6.772v62.925c0 3.739-3.03 6.77-6.77 6.77z"/>
                <path fill="#FFF" d="M39.69 34.686v2.237h-2.503v4.555H34.48V30.316h2.708v4.37h2.503zm-4.986 10.855c0-1.046-1.292-1.54-3.693-1.54-2.421 0-3.714.494-3.714 1.54 0 1.066 1.293 1.559 3.714 1.559 2.401 0 3.693-.493 3.693-1.559zm2.688 0c0 2.297-2.462 3.652-6.38 3.652-3.94 0-6.402-1.355-6.402-3.652 0-2.278 2.462-3.632 6.401-3.632 3.919 0 6.381 1.354 6.381 3.632zm-5.355-4.78c-1.99-.658-3.365-1.93-4.165-3.53-.82 1.867-2.277 3.324-4.432 4.062l-1.416-2.133c3.16-1.047 4.432-3.57 4.432-6.136v-1.703h2.75v1.929c0 2.278 1.272 4.494 4.247 5.417l-1.416 2.093zM58.566 36.738h-2.503v4.145h-2.708V30.275h2.708v4.267h2.503v2.196zM46.44 46.854h6.977v-3.017H46.44v3.017zm-2.667 2.113h12.29v-7.263h-12.29v7.263zm8.37-9.336c-2.317.513-4.472.616-8.657.616h-1.581v-8.802h8.413v2.174h-5.725v4.453c3.365-.02 5.233-.144 7.284-.575l.267 2.134zM83.187 34.584v2.236h-2.503v4.493h-2.708V30.295h2.708v4.289h2.503zM69.03 38.277h3.713v-2.421H69.03v2.42zm2.072 8.536h10.054v2.154H68.414v-6.832h12.393v2.154h-9.705v2.524zm4.309-6.422h-9.049v-8.987h2.668v2.38h3.713v-2.38h2.668v8.987zM96.687 42.463c.719-3.57.76-6.197.76-8.392H86.428v-2.154h13.727v1.806c0 2.359 0 5.026-.76 9.047l-2.708-.307zm5.11 2.278v2.174H84.705v-2.174h6.032v-6.505h2.709v6.505h8.35zM113.983 45.746c0 .984 1.293 1.415 3.817 1.415 2.523 0 3.816-.43 3.816-1.415 0-.965-1.293-1.415-3.816-1.415-2.524 0-3.817.45-3.817 1.415zm-.185-11.347c0 1.108 1.478 1.642 4.043 1.642 2.585 0 4.062-.534 4.062-1.642 0-1.067-1.477-1.62-4.062-1.62-2.565 0-4.043.553-4.043 1.62zm10.568 11.347c0 2.216-2.483 3.467-6.566 3.467-4.084 0-6.545-1.251-6.545-3.467s2.461-3.468 6.545-3.468c4.083 0 6.566 1.252 6.566 3.468zm.328-11.347c0 2.32-2.688 3.714-6.853 3.714-4.145 0-6.833-1.395-6.833-3.714 0-2.278 2.688-3.693 6.833-3.693 4.165 0 6.853 1.415 6.853 3.693zm-15.389 6.853h17.072v-2.134h-17.072v2.134z"/>
                <mask id="6b94vgomtd" fill="#fff">
                    <use xlink:href="#6rurnk92wc"/>
                </mask>
                <path fill="#FFF" d="M132.633 38.831h8.146v-5.006h-8.146v5.006zm12.66 5.971v2.196h-17.112v-2.196h7.181v-3.837h-5.375V31.69h13.439v9.275h-5.355v3.837h7.222zM164.6 39.918h-2.708v9.275h-2.708V30.296h2.708v7.387h2.708v2.235zm-9.89.883c0-1.416-.923-2.298-2.195-2.298-1.272 0-2.216.882-2.216 2.318 0 1.437.944 2.299 2.216 2.299 1.272 0 2.196-.862 2.196-2.319zm2.565 0c0 2.667-2.031 4.534-4.76 4.534-2.75 0-4.802-1.867-4.802-4.534 0-2.626 2.052-4.493 4.802-4.493 2.729 0 4.76 1.867 4.76 4.493zm-3.427-7.715h4.104v2.154h-10.997v-2.154h4.185v-2.462h2.708v2.462zM178.941 49.172h2.73V30.275h-2.73v18.897zm-2.892-16.928c0 5.787-1.95 10.506-8.66 13.748l-1.415-2.134c4.822-2.318 6.915-5.273 7.305-9.459h-6.3v-2.155h9.07zM210.506 61.905h14.334v-6.123l2.202-1.607 1.187-3.78.825-8.458-.589-7.326s-3.6-1.446-4.83 0c0 0-2.237-6.124-5.535-2.355 0 0-4.564-4.005-5.418-.59 0 0 .825-14.84-5.183-6.006v12.467l-3.061-1.069s-10.012.309-1.532 4.88l1.06 6.69 1.131 3.942 3.835 1.155 1.866 3.03-.292 5.15z" mask="url(#6b94vgomtd)"/>
                <path fill="#000" d="M229.643 36.057c0-1.995-1.624-3.619-3.619-3.619-.655 0-1.262.19-1.792.495-.398-1.566-1.808-2.733-3.497-2.733-.859 0-1.639.313-2.26.816-.646-.992-1.76-1.652-3.03-1.652-.605 0-1.167.165-1.67.428v-4.286c0-1.995-1.623-3.618-3.618-3.618-1.995 0-3.619 1.623-3.619 3.618v4.086l-.002.012v7.545c-1.504-1.04-3.067-1.222-3.168-1.232-1.472-.14-2.636.166-3.456.912-1.052.957-1.081 2.243-1.08 2.343-.093 2.14 1.41 3.162 2.272 3.42 1.709.403 1.675 2.208 1.664 2.444-.136 6.813 4.883 10.177 5.141 10.344 1.737 1.012 1.632 2.731 1.623 2.885v2.666c0 .537.436.974.974.974s.974-.437.974-.974l-.005-2.576c.012-.122.246-3.008-2.543-4.63-.044-.028-4.332-2.905-4.218-8.61.075-1.252-.488-3.787-3.106-4.404-.035-.01-.882-.278-.83-1.484 0-.006.023-.587.46-.972.496-.437 1.332-.46 1.93-.402.024.002 2.172.286 3.368 2.017v2.373c.018.723-.035 1.541-.093 1.712-.278.512-.905 2.5-1.09 3.098-.16.514.127 1.06.64 1.219.097.03.193.044.29.044.414 0 .8-.268.929-.685.348-1.125.808-2.492.94-2.744.312-.572.352-1.77.331-2.657 0-.003.003-.006.003-.01V25.506c0-.92.75-1.67 1.67-1.67.922 0 1.672.75 1.672 1.67V40.46c0 .538.436.974.973.974.538 0 .974-.436.974-.974v-7.477c0-.92.75-1.67 1.67-1.67.922 0 1.672.75 1.672 1.67V40.46c0 .538.436.974.974.974.537 0 .973-.436.973-.974v-6.64c0-.923.75-1.672 1.671-1.672.922 0 1.672.75 1.672 1.672V40.459c0 .538.435.974.973.974s.973-.436.973-.974v-4.402c0-.92.75-1.671 1.671-1.671.922 0 1.671.75 1.671 1.671v7.382c-.003.033-.019.06-.019.094v3.814c.001.216-.018.529-.054.881l-.518 2.366c-.284.797-.693 1.555-1.285 2.067-.08.061-1.953 1.515-1.953 4.854v3.416c0 .537.436.974.973.974.538 0 .974-.437.974-.974v-3.416c0-2.32 1.143-3.27 1.23-3.34 2.572-2.22 2.581-6.65 2.58-6.833v-3.714c.004-.032.02-.06.02-.095v-7.476z" mask="url(#6b94vgomtd)"/>
                <path stroke="#000" stroke-width="1.682" d="M218.043 16.291l-4.323 3.634M210.042 12.66l.005 5.647M202.117 16.455l4.33 3.626" mask="url(#6b94vgomtd)"/>
            </g>
        </g>
    </g>
</svg>
