<?xml version="1.0" encoding="utf-8"?>
<!-- Generator: Adobe Illustrator 25.2.0, SVG Export Plug-In . SVG Version: 6.00 Build 0)  -->
<svg version="1.1" id="레이어_1" xmlns="http://www.w3.org/2000/svg" xmlns:xlink="http://www.w3.org/1999/xlink" x="0px"
	 y="0px" viewBox="0 0 699.59 345.66" style="enable-background:new 0 0 699.59 345.66;" xml:space="preserve">
<style type="text/css">
	.st0{fill:#F3D823;}
	.st1{clip-path:url(#SVGID_2_);}
	.st2{clip-path:url(#SVGID_4_);}
	.st3{fill:#251B18;}
	.st4{fill-rule:evenodd;clip-rule:evenodd;fill:#251B18;}
	.st5{fill:none;}
	.st6{fill:#040000;}
	.st7{fill:#DC2525;}
</style>
<path class="st0" d="M591.34,105.09c-3.04,13.94-4.29,20.89-4.42,22.63l-0.04,0.57l-0.13,0.55c-1.71,7.12-3.3,14.29-4.84,21.22
	c-2.75,12.39-5.59,25.19-9.16,37.98L564.37,218l-4.62-23.63c-2.04-1.05-3.5-2.97-3.97-5.36c-0.45-2.35,0.23-4.39,1.01-6.75
	c0.3-0.9,0.74-2.23,0.88-2.97c0.09-2.26-0.14-3.42-0.29-3.91c-3.72-2.32-3.83-6.12-3.04-10.23c-0.55-1.11-0.9-2.27-1.16-3.38
	l-4.75,0.13l2.42-9.28c0.34-1.29,0.74-2.7,1.16-4.16c0.79-2.74,1.61-5.58,2.01-7.87c0.27-2.27,0.29-4.84,0.3-7.55l0.04-0.76
	c0.61-5.39,1.18-10.62,1.74-15.74c0.19-1.7,0.37-3.38,0.55-5.06c-2.23,0.37-4.47,0.73-6.72,1.07l-0.6,0.09l-0.6-0.01
	c-1.23-0.01-2.36-0.02-3.43-0.03l-1.33,0.39c-0.67,0.2-1.32,0.34-1.94,0.43l0.05,0.35l-7.21,1.07c-9.49,1.41-19.96,3.02-31.99,4.91
	c-1.91,0.34-3.83,0.13-5.86-0.1c-0.8-0.09-1.62-0.18-2.38-0.23l-0.65-0.04l-0.63-0.15c-0.62-0.15-1.23-0.32-1.81-0.51l-0.26,0.01
	l-0.58-0.26l-1.39,0.24l-1.4-1.37l-20.58-8.05l5.05-0.99l-0.88-0.5l13.54-2.67l-3.85-3.37l0.65-0.13l-7.05-0.68l25.19-11.64
	c2.18-1.01,4.44-2.05,6.71-3.02l0.44-0.17c2.8-0.98,6.3-1.92,10.7-2.9c3.87-0.84,7.83-1.46,11.22-1.96l1.49-0.26
	c1.55-0.19,3.67-0.44,6.18-0.78c0.82-0.11,1.67-0.23,2.56-0.35c1.96-0.27,4.09-0.57,6.35-0.84c4.82-0.64,10.26-1.32,15.71-1.96
	c0.4-2.07,0.82-4.14,1.25-6.2l-4.24,5.58l6.43-14.81l-0.19-0.05l0.58-2.15c-18.66-12.14-40.91-19.2-64.78-19.2H125.81
	C60.12,40.28,6.67,93.73,6.67,159.42v60.43c0,65.69,53.45,119.14,119.14,119.14h374.65c65.69,0,119.14-53.45,119.14-119.14v-60.43
	c0-20.52-5.22-39.85-14.39-56.72C600.78,103.41,596.22,104.19,591.34,105.09z"/>
<g>
	<g>
		<defs>
			<path id="SVGID_1_" d="M218.24,203.71c0.78-4.82,2.1-9.43,3.98-13.87c1.88-4.42,4.18-8.59,6.91-12.49
				c2.75-3.89,5.88-7.43,9.43-10.63c3.54-3.19,7.41-5.93,11.57-8.22c4.18-2.27,8.61-4.04,13.31-5.32c4.71-1.27,9.6-1.9,14.66-1.9
				c7.62,0,14.39,1.39,20.32,4.13c5.93,2.76,10.77,6.5,14.56,11.26c3.77,4.74,6.43,10.29,7.94,16.62
				c1.52,6.34,1.69,13.07,0.51,20.23l0.07,0.19c-0.35,2.03-0.71,3.61-1.07,4.74l-1.07,3.43h-75.12c0.28,3.1,1.03,5.89,2.23,8.36
				c1.19,2.46,2.71,4.57,4.6,6.32c1.88,1.74,3.99,3.07,6.38,4.03c2.39,0.96,4.93,1.43,7.59,1.43c4.35,0,8.31-0.99,11.88-2.94
				c3.58-1.96,6.43-4.46,8.59-7.5h29.83c-2.1,4.3-4.84,8.53-8.27,12.67c-3.41,4.16-7.44,7.84-12.07,11.06
				c-4.61,3.24-9.77,5.83-15.45,7.8c-5.69,1.96-11.77,2.94-18.26,2.94c-7.62,0-14.38-1.39-20.24-4.13
				c-5.87-2.76-10.7-6.52-14.48-11.26c-3.78-4.74-6.41-10.32-7.9-16.67C217.21,217.62,217.05,210.86,218.24,203.71 M274.7,174.56
				c-2.85,0-5.59,0.4-8.17,1.23c-2.6,0.83-5.01,1.99-7.24,3.46c-2.23,1.5-4.25,3.27-6.04,5.33c-1.78,2.06-3.33,4.36-4.64,6.89h45.38
				c-0.82-5-2.86-9.07-6.11-12.22C284.63,176.11,280.24,174.56,274.7,174.56"/>
		</defs>
		<clipPath id="SVGID_2_">
			<use xlink:href="#SVGID_1_"  style="overflow:visible;"/>
		</clipPath>
		<g class="st1">
			<defs>
				<rect id="SVGID_3_" x="-351.26" y="-555.12" width="1496.6" height="1496.6"/>
			</defs>
			<clipPath id="SVGID_4_">
				<use xlink:href="#SVGID_3_"  style="overflow:visible;"/>
			</clipPath>
			<g class="st2">
				<rect x="202.48" y="136.32" class="st3" width="134.69" height="134.69"/>
			</g>
		</g>
	</g>
	<g>
		<polygon class="st4" points="198.53,253.11 173.61,253.11 127.67,175.28 114.56,253.11 85.74,253.11 107.57,123.22 132.68,123.22 
			178.51,200.87 191.62,123.22 220.36,123.22 		"/>
	</g>
	<g>
		<path class="st4" d="M462.67,213.6l-6.69,39.45h-29l21.96-128.71h53.73c5.78,0,11.03,0.93,15.73,2.79c4.7,1.87,8.69,4.48,12,7.86
			c3.28,3.36,5.84,7.38,7.63,11.97c1.79,4.6,2.69,9.65,2.69,15.13c0,7.39-1.37,14.21-4.16,20.49c-2.76,6.28-6.55,11.72-11.33,16.33
			c-4.8,4.61-10.39,8.2-16.8,10.79c-6.4,2.59-13.24,3.89-20.5,3.89H462.67z M490.39,187.84c2.63,0,5.18-0.57,7.68-1.69
			c2.52-1.14,4.73-2.69,6.69-4.64c1.95-1.95,3.5-4.24,4.65-6.86c1.16-2.62,1.75-5.41,1.75-8.39c0-2.19-0.33-4.27-1.01-6.24
			c-0.66-1.96-1.63-3.67-2.88-5.15c-1.26-1.48-2.75-2.65-4.5-3.52c-1.73-0.84-3.64-1.27-5.71-1.27h-23.52l-6.49,37.76H490.39z"/>
	</g>
	<g>
		<path class="st4" d="M357.9,213.6l-6.69,39.45h-29l21.96-128.71h53.73c5.78,0,11.03,0.93,15.73,2.79c4.7,1.87,8.69,4.48,12,7.86
			c3.28,3.36,5.84,7.38,7.63,11.97c1.79,4.6,2.69,9.65,2.69,15.13c0,7.39-1.37,14.21-4.16,20.49c-2.76,6.28-6.55,11.72-11.33,16.33
			c-4.8,4.61-10.39,8.2-16.8,10.79c-6.4,2.59-13.24,3.89-20.5,3.89H357.9z M385.63,187.84c2.63,0,5.18-0.57,7.68-1.69
			c2.52-1.14,4.73-2.69,6.69-4.64c1.95-1.95,3.5-4.24,4.65-6.86c1.16-2.62,1.75-5.41,1.75-8.39c0-2.19-0.33-4.27-1.01-6.24
			c-0.66-1.96-1.63-3.67-2.88-5.15c-1.26-1.48-2.75-2.65-4.5-3.52c-1.73-0.84-3.64-1.27-5.71-1.27h-23.52l-6.49,37.76H385.63z"/>
	</g>
</g>
<path class="st5" d="M125.81,40.28C60.12,40.28,6.67,93.73,6.67,159.42v60.43c0,65.69,53.45,119.14,119.14,119.14h374.65
	c65.69,0,119.14-53.45,119.14-119.14v-60.43c0-20.52-5.22-39.85-14.39-56.72c-4.43,0.71-8.99,1.5-13.87,2.39
	c-3.04,13.94-4.29,20.89-4.42,22.63l-0.04,0.57l-0.13,0.55c-1.71,7.12-3.3,14.29-4.84,21.22c-2.75,12.39-5.59,25.19-9.16,37.98
	L564.37,218l-4.62-23.63c-2.04-1.05-3.5-2.97-3.97-5.36c-0.45-2.35,0.23-4.39,1.01-6.75c0.3-0.9,0.74-2.23,0.88-2.97
	c0.09-2.26-0.14-3.42-0.29-3.91c-3.72-2.32-3.83-6.12-3.04-10.23c-0.55-1.11-0.9-2.27-1.16-3.38l-4.75,0.13l2.42-9.28
	c0.34-1.29,0.74-2.7,1.16-4.16c0.79-2.74,1.61-5.58,2.01-7.87c0.27-2.27,0.29-4.84,0.3-7.55l0.04-0.76
	c0.61-5.39,1.18-10.62,1.74-15.74c0.19-1.7,0.37-3.38,0.55-5.06c-2.23,0.37-4.47,0.73-6.72,1.07l-0.6,0.09l-0.6-0.01
	c-1.23-0.01-2.36-0.02-3.43-0.03l-1.33,0.39c-0.67,0.2-1.32,0.34-1.94,0.43l0.05,0.35l-7.21,1.07c-9.49,1.41-19.96,3.02-31.99,4.91
	c-1.91,0.34-3.83,0.13-5.86-0.1c-0.8-0.09-1.62-0.18-2.38-0.23l-0.65-0.04l-0.63-0.15c-0.62-0.15-1.23-0.32-1.81-0.51l-0.26,0.01
	l-0.58-0.26l-1.39,0.24l-1.4-1.37l-20.58-8.05l5.05-0.99l-0.88-0.5l13.54-2.67l-3.85-3.37l0.65-0.13l-7.05-0.68l25.19-11.64
	c2.18-1.01,4.44-2.05,6.71-3.02l0.44-0.17c2.8-0.98,6.3-1.92,10.7-2.9c3.87-0.84,7.83-1.46,11.22-1.96l1.49-0.26
	c1.55-0.19,3.67-0.44,6.18-0.78c0.82-0.11,1.67-0.23,2.56-0.35c1.96-0.27,4.09-0.57,6.35-0.84c4.82-0.64,10.26-1.32,15.71-1.96
	c0.4-2.07,0.82-4.14,1.25-6.2l-4.24,5.58l6.43-14.81l-0.19-0.05l0.58-2.15c-18.66-12.14-40.91-19.2-64.78-19.2H125.81z"/>
<path class="st6" d="M619.6,159.42v60.43c0,65.69-53.45,119.14-119.14,119.14H125.81c-65.69,0-119.14-53.45-119.14-119.14v-60.43
	c0-65.69,53.45-119.14,119.14-119.14h374.65c23.87,0,46.12,7.06,64.78,19.2l1.27-4.72c0.18-0.68,0.38-1.35,0.56-2.02
	c-19.33-12.12-42.17-19.14-66.62-19.14H125.81C56.44,33.61,0,90.05,0,159.42v60.43c0,69.37,56.44,125.81,125.81,125.81h374.65
	c69.37,0,125.81-56.44,125.81-125.81v-60.43c0-20.82-5.09-40.48-14.08-57.79c-2.31,0.34-4.62,0.69-6.98,1.07
	C614.39,119.57,619.6,138.9,619.6,159.42z"/>
<path class="st7" d="M665.35,72.64c-12.02-0.97-23.75-1.01-32.69-0.93c-9.4,0.17-19.35,0.53-32.26,1.17l-0.45,0.02l-0.45,0.08
	c-0.21,0.04-0.46,0.08-0.76,0.12c0.89-3.54,1.68-6.45,2.25-8.33l0.33-1.37c2.46-8.73,3.99-15.23,4.7-19.86l0.05-0.47
	c0.1-1.14,0.18-2.29,0.26-3.45c0.1-1.39,0.2-2.8,0.33-4.19l2.15-23.4l-2.99,3.58l0.02-0.05l-5.02,0.99l5.85-12.26l-0.99,0.41
	L607.93,0l-18.72,11.25l-1.91,0.31l-0.57,1.14l-0.59,0.32l-0.15,0.22c-0.54,0.37-1.08,0.78-1.62,1.22l-0.51,0.42l-0.43,0.51
	c-0.49,0.57-1,1.13-1.48,1.67c-1.56,1.72-3.05,3.35-3.9,5.33c-4.25,9.23-7.84,19.2-10.96,30.38c-0.19,0.67-0.38,1.34-0.56,2.02
	l-1.27,4.72l-0.58,2.15l0.19,0.05l-6.43,14.81l4.24-5.58c-0.43,2.05-0.85,4.12-1.25,6.2c-5.45,0.64-10.9,1.32-15.71,1.96
	c-2.26,0.27-4.39,0.57-6.35,0.84c-0.89,0.12-1.73,0.24-2.56,0.35c-2.52,0.34-4.63,0.6-6.18,0.78l-1.49,0.26
	c-3.39,0.5-7.35,1.13-11.22,1.96c-4.4,0.97-7.91,1.92-10.7,2.9l-0.44,0.17c-2.28,0.96-4.53,2.01-6.71,3.02L474.85,101l7.05,0.68
	l-0.65,0.13l3.85,3.37l-13.54,2.67l0.88,0.5l-5.05,0.99l20.58,8.05l1.4,1.37l1.39-0.24l0.58,0.26l0.26-0.01
	c0.58,0.19,1.18,0.36,1.81,0.51l0.63,0.15l0.65,0.04c0.76,0.05,1.58,0.14,2.38,0.23c2.03,0.22,3.95,0.44,5.86,0.1
	c12.03-1.89,22.5-3.5,31.99-4.91l7.21-1.07l-0.05-0.35c0.62-0.1,1.27-0.24,1.94-0.43l1.33-0.39c1.07,0,2.2,0.01,3.43,0.03l0.6,0.01
	l0.6-0.09c2.25-0.34,4.49-0.7,6.72-1.07c-0.18,1.67-0.37,3.36-0.55,5.06c-0.56,5.12-1.13,10.35-1.74,15.74l-0.04,0.76
	c-0.02,2.71-0.03,5.27-0.3,7.55c-0.4,2.29-1.22,5.13-2.01,7.87c-0.42,1.46-0.83,2.87-1.16,4.16l-2.42,9.28l4.75-0.13
	c0.26,1.11,0.6,2.28,1.16,3.38c-0.79,4.1-0.67,7.91,3.04,10.23c0.14,0.49,0.38,1.65,0.29,3.91c-0.14,0.74-0.58,2.07-0.88,2.97
	c-0.79,2.37-1.47,4.41-1.01,6.75c0.47,2.39,1.93,4.31,3.97,5.36l4.62,23.63l8.36-29.97c3.57-12.79,6.41-25.59,9.16-37.98
	c1.54-6.93,3.13-14.09,4.84-21.22l0.13-0.55l0.04-0.57c0.13-1.73,1.38-8.69,4.42-22.63c4.88-0.9,9.45-1.69,13.87-2.39
	c2.36-0.38,4.68-0.73,6.98-1.07c0.12-0.02,0.25-0.04,0.37-0.06l0.65-0.12c2.59-0.61,5.28-1.25,7.68-1.56
	c2.42-0.19,5.51-0.09,8.49,0.02c1.5,0.05,2.95,0.1,4.28,0.11l9.81,0.09l-1.19-4.16c0.99-0.44,2-0.97,2.93-1.65
	c4.13-0.06,7.95-0.74,9.67-4.61c0.51-0.24,1.73-0.7,4.2-1.02c0.83,0,2.33,0.16,3.43,0.29c2.57,0.3,4.6,0.54,6.74-0.19
	c2.25-0.78,3.96-2.43,4.75-4.47l25.61-8.88L665.35,72.64z"/>
</svg>
