<?xml version="1.0" encoding="UTF-8"?>
<svg width="436px" height="59px" viewBox="0 0 436 59" version="1.1" xmlns="http://www.w3.org/2000/svg" xmlns:xlink="http://www.w3.org/1999/xlink">
    <!-- Generator: sketchtool 56.2 (101010) - https://sketch.com -->
    <title>781C9B02-D1E8-47C9-A37A-A326B18F62E6</title>
    <desc>Created with sketchtool.</desc>
    <g id="Page-1" stroke="none" stroke-width="1" fill="none" fill-rule="evenodd">
        <g id="수강후기" transform="translate(-743.000000, -611.000000)">
            <g id="Group-34" transform="translate(744.000000, 612.000000)">
                <polygon id="Fill-1" fill="#FFFFFF" points="433.0753 55.7219 389.0363 55.7219 389.0363 9.5889 433.0753 9.5889 420.4893 32.6559"></polygon>
                <polygon id="Stroke-2" stroke="#000000" stroke-width="2.843" stroke-linejoin="round" points="433.0753 55.7219 389.0363 55.7219 389.0363 9.5889 433.0753 9.5889 420.4893 32.6559"></polygon>
                <polygon id="Fill-4" fill="#FFFFFF" points="411.274 46.5539 389.036 55.7219 389.036 46.5539"></polygon>
                <polygon id="Stroke-5" stroke="#000000" stroke-width="2.843" stroke-linejoin="round" points="411.274 46.5539 389.036 55.7219 389.036 46.5539"></polygon>
                <polygon id="Fill-7" fill="#FFFFFF" points="0.4215 55.7219 44.4605 55.7219 44.4605 9.5889 0.4215 9.5889 13.0075 32.6559"></polygon>
                <polygon id="Stroke-8" stroke="#000000" stroke-width="2.843" stroke-linejoin="round" points="0.4215 55.7219 44.4605 55.7219 44.4605 9.5889 0.4215 9.5889 13.0075 32.6559"></polygon>
                <polygon id="Fill-10" fill="#FFFFFF" points="22.2227 46.5539 44.4607 55.7219 44.4607 46.5539"></polygon>
                <polygon id="Stroke-11" stroke="#000000" stroke-width="2.843" stroke-linejoin="round" points="22.2227 46.5539 44.4607 55.7219 44.4607 46.5539"></polygon>
                <polygon id="Fill-13" fill="#FFFFFF" points="22.441 46.554 411.274 46.554 411.274 0.421 22.441 0.421"></polygon>
                <g id="Group-33" transform="translate(22.000000, 0.143000)">
                    <polygon id="Stroke-14" stroke="#000000" stroke-width="2.843" stroke-linejoin="round" points="0.441 46.411 389.274 46.411 389.274 0.278 0.441 0.278"></polygon>
                    <path d="M28.2027,22.7645 C24.6997,22.2425 22.1967,20.6105 20.9127,18.4555 C19.6297,20.6105 17.1057,22.2425 13.6017,22.7645 L12.5147,20.4575 C17.0837,19.8265 19.3687,17.2375 19.3687,14.8875 L19.3687,13.9305 L22.4367,13.9305 L22.4367,14.8875 C22.4367,17.2155 24.7427,19.8265 29.2907,20.4575 L28.2027,22.7645 Z M29.9437,26.5725 L22.2627,26.5725 L22.2627,33.4045 L19.3897,33.4045 L19.3897,26.5725 L11.8397,26.5725 L11.8397,24.2435 L29.9437,24.2435 L29.9437,26.5725 Z" id="Fill-16" fill="#000000"></path>
                    <path d="M50.2603,18.0213 L50.2603,20.3923 L47.6053,20.3923 L47.6053,24.9183 L44.7333,24.9183 L44.7333,13.3213 L47.6053,13.3213 L47.6053,18.0213 L50.2603,18.0213 Z M44.9943,29.2923 C44.9943,28.0513 43.5363,27.4203 41.0993,27.4203 C38.6623,27.4203 37.2043,28.0513 37.2043,29.2923 C37.2043,30.5323 38.6623,31.1633 41.0993,31.1633 C43.5363,31.1633 44.9943,30.5323 44.9943,29.2923 L44.9943,29.2923 Z M47.8233,29.2923 C47.8233,31.8163 45.1463,33.4043 41.0993,33.4043 C37.0523,33.4043 34.3763,31.8163 34.3763,29.2923 C34.3763,26.7903 37.0523,25.1793 41.0993,25.1793 C45.1463,25.1793 47.8233,26.7903 47.8233,29.2923 L47.8233,29.2923 Z M42.1003,14.6483 C42.1003,20.0443 38.7493,23.7653 32.8313,25.4183 L31.6773,23.1123 C36.0513,21.9373 38.5103,19.6743 38.9453,16.9333 L32.6133,16.9333 L32.6133,14.6483 L42.1003,14.6483 Z" id="Fill-17" fill="#000000"></path>
                    <path d="M60.8946,20.5887 C58.2836,20.5887 57.0216,20.9807 57.0216,21.9157 C57.0216,22.8077 58.2836,23.2217 60.8946,23.2217 C63.5056,23.2217 64.7896,22.8077 64.7896,21.9157 C64.7896,20.9807 63.5056,20.5887 60.8946,20.5887 L60.8946,20.5887 Z M60.8946,18.4557 C65.1816,18.4557 67.7706,19.6957 67.7706,21.9157 C67.7706,24.1127 65.1816,25.3537 60.8946,25.3537 C56.6076,25.3537 54.0406,24.1127 54.0406,21.9157 C54.0406,19.6957 56.6076,18.4557 60.8946,18.4557 L60.8946,18.4557 Z M69.0106,17.6727 L52.7136,17.6727 L52.7136,15.4317 L59.4586,15.4317 L59.4586,13.3207 L62.3306,13.3207 L62.3306,15.4317 L69.0106,15.4317 L69.0106,17.6727 Z M69.9896,28.6177 L62.3306,28.6177 L62.3306,33.4037 L59.4586,33.4037 L59.4586,28.6177 L51.8426,28.6177 L51.8426,26.3117 L69.9896,26.3117 L69.9896,28.6177 Z" id="Fill-18" fill="#000000"></path>
                    <path d="M85.651,33.361 L88.545,33.361 L88.545,13.321 L85.651,13.321 L85.651,33.361 Z M82.583,15.41 C82.583,21.546 80.515,26.551 73.4,29.988 L71.899,27.725 C77.012,25.266 79.232,22.134 79.645,17.694 L72.965,17.694 L72.965,15.41 L82.583,15.41 Z" id="Fill-19" fill="#000000"></path>
                    <path d="M116.3888,17.825 L116.3888,20.197 L113.7338,20.197 L113.7338,24.962 L110.8618,24.962 L110.8618,13.364 L113.7338,13.364 L113.7338,17.825 L116.3888,17.825 Z M111.1008,29.423 C111.1008,28.248 109.7298,27.704 107.1848,27.704 C104.6168,27.704 103.2458,28.248 103.2458,29.423 C103.2458,30.576 104.6168,31.12 107.1848,31.12 C109.7298,31.12 111.1008,30.576 111.1008,29.423 L111.1008,29.423 Z M103.2458,23.156 C105.4878,21.306 106.4448,19.522 106.7058,16.803 L104.5518,16.803 L104.5518,14.517 L109.4258,14.517 C109.4258,18.957 108.5118,22.047 105.2698,24.745 L103.2458,23.156 Z M113.9518,29.423 C113.9518,31.903 111.3188,33.383 107.1848,33.383 C103.0288,33.383 100.3958,31.903 100.3958,29.423 C100.3958,26.921 103.0288,25.441 107.1848,25.441 C111.3188,25.441 113.9518,26.921 113.9518,29.423 L113.9518,29.423 Z M103.8558,14.517 C103.8558,18.804 102.8978,21.633 99.4818,24.136 L97.6758,22.373 C99.8738,20.828 100.8308,19.262 101.1358,16.803 L98.5028,16.803 L98.5028,14.517 L103.8558,14.517 Z" id="Fill-20" fill="#000000"></path>
                    <path d="M135.1607,13.3426 L135.1607,33.4046 L132.4407,33.4046 L132.4407,23.3526 L130.8957,23.3526 L130.8957,32.4466 L128.2417,32.4466 L128.2417,13.7126 L130.8957,13.7126 L130.8957,21.0236 L132.4407,21.0236 L132.4407,13.3426 L135.1607,13.3426 Z M121.9317,26.4416 C122.4097,26.4196 122.9317,26.3986 123.4317,26.3766 L123.4317,17.8906 L121.9317,17.8906 L121.9317,26.4416 Z M125.9997,26.1806 C126.4787,26.1376 126.9577,26.0936 127.3927,26.0286 L127.6097,28.1166 C124.5417,28.7706 120.5167,28.8346 118.0797,28.8346 L117.7747,26.5066 L119.3637,26.5066 L119.3637,17.8906 L118.1227,17.8906 L118.1227,15.5836 L127.2617,15.5836 L127.2617,17.8906 L125.9997,17.8906 L125.9997,26.1806 Z" id="Fill-21" fill="#000000"></path>
                    <path d="M157.5426,19.8484 C157.6076,18.9344 157.6076,18.0854 157.6076,17.3024 L146.1196,17.3024 L146.1196,15.0184 L160.436644,15.0184 L160.436644,16.7814 C160.436644,19.1964 160.4586,22.0024 159.5226,26.3984 L156.6936,26.0494 C157.0426,24.5704 157.2596,23.2434 157.3686,22.0464 L145.8796,22.6564 L145.5096,20.2404 L157.5426,19.8484 Z M162.1996,28.7474 L162.1996,31.0764 L144.0736,31.0764 L144.0736,28.7474 L150.4926,28.7474 L150.4926,23.9604 L153.3646,23.9604 L153.3646,28.7474 L162.1996,28.7474 Z" id="Fill-22" fill="#000000"></path>
                    <path d="M177.838,25.31 L180.732,25.31 L180.732,13.321 L177.838,13.321 L177.838,25.31 Z M177.947,29.467 C177.947,28.291 176.554,27.747 173.965,27.747 C171.354,27.747 169.962,28.291 169.962,29.467 C169.962,30.619 171.354,31.207 173.965,31.207 C176.554,31.207 177.947,30.619 177.947,29.467 L177.947,29.467 Z M180.797,29.467 C180.797,31.947 178.165,33.427 173.965,33.427 C169.744,33.427 167.111,31.947 167.111,29.467 C167.111,26.964 169.744,25.506 173.965,25.506 C178.165,25.506 180.797,26.964 180.797,29.467 L180.797,29.467 Z M176.576,23.482 C173.943,24.005 171.463,24.113 166.959,24.113 L165.218,24.113 L165.218,23.112 L165.196,23.112 L165.196,14.845 L174.705,14.845 L174.705,17.129 L168.068,17.129 L168.068,21.807 C171.768,21.785 173.943,21.677 176.294,21.176 L176.576,23.482 Z" id="Fill-23" fill="#000000"></path>
                    <path d="M197.894,33.404 L200.788,33.404 L200.788,13.342 L197.894,13.342 L197.894,33.404 Z M188.037,26.551 C191.018,26.529 193.433,26.42 196.175,26.007 L196.436,28.291 C193.303,28.77 190.496,28.857 186.906,28.857 L185.165,28.857 L185.165,14.997 L195.305,14.997 L195.305,17.325 L188.037,17.325 L188.037,20.589 L194.478,20.589 L194.478,22.83 L188.037,22.83 L188.037,26.551 Z" id="Fill-24" fill="#000000"></path>
                    <path d="M220.9312,13.3426 L220.9312,33.4266 L218.0592,33.4266 L218.0592,23.3296 L214.5122,23.3296 L214.5122,21.0016 L218.0592,21.0016 L218.0592,13.3426 L220.9312,13.3426 Z M211.5972,19.5876 C211.5972,22.4596 213.1412,25.7236 216.3622,27.1596 L214.8382,29.3576 C212.6412,28.3776 211.0742,26.5066 210.2042,24.2436 C209.3552,26.6376 207.7882,28.6606 205.5262,29.6836 L204.0022,27.4866 C207.2232,25.9856 208.7242,22.5906 208.7242,19.5876 L208.7242,18.8916 L204.6772,18.8916 L204.6772,16.6066 L208.7242,16.6066 L208.7242,13.8216 L211.5972,13.8216 L211.5972,16.6066 L215.5782,16.6066 L215.5782,18.8916 L211.5972,18.8916 L211.5972,19.5876 Z" id="Fill-25" fill="#000000"></path>
                    <path d="M243.944,33.383 L246.816,33.383 L246.816,13.343 L243.944,13.343 L243.944,33.383 Z M237.961,18.739 C237.961,22.003 239.571,25.463 242.922,26.855 L241.355,29.118 C239.027,28.117 237.439,26.159 236.546,23.744 C235.654,26.354 234.044,28.553 231.694,29.619 L230.062,27.334 C233.413,25.833 235.045,22.155 235.045,18.739 L235.045,17.63 L230.867,17.63 L230.867,15.258 L242.095,15.258 L242.095,17.63 L237.961,17.63 L237.961,18.739 Z" id="Fill-26" fill="#000000"></path>
                    <path d="M264.087,33.361 L266.96,33.361 L266.96,13.321 L264.087,13.321 L264.087,33.361 Z M254.122,25.985 C256.755,25.92 259.606,25.702 262.543,25.114 L262.847,27.508 C259.431,28.226 256.102,28.443 253.056,28.443 L251.272,28.443 L251.272,15.236 L254.122,15.236 L254.122,25.985 Z" id="Fill-27" fill="#000000"></path>
                    <path d="M286.3849,21.0457 L272.4809,21.0457 L272.4809,14.0607 L275.3529,14.0607 L275.3529,18.7607 L286.3849,18.7607 L286.3849,21.0457 Z M275.1789,30.6627 L286.4929,30.6627 L286.4929,32.9697 L272.2849,32.9697 L272.2849,26.9847 L275.1789,26.9847 L275.1789,30.6627 Z M270.2389,25.3977 L288.3859,25.3977 L288.3859,23.0907 L270.2389,23.0907 L270.2389,25.3977 Z" id="Fill-28" fill="#000000"></path>
                    <path d="M314.9464,23.1121 L312.0304,23.1121 L312.0304,33.4261 L309.1584,33.4261 L309.1584,13.3421 L312.0304,13.3421 L312.0304,20.7411 L314.9464,20.7411 L314.9464,23.1121 Z M299.9764,26.2241 C302.8264,26.1801 305.1984,26.0281 307.7874,25.5921 L308.0704,27.9651 C305.0464,28.5081 302.3044,28.6181 298.8224,28.6181 L297.1044,28.6181 L297.1044,15.1921 L306.4604,15.1921 L306.4604,17.5201 L299.9764,17.5201 L299.9764,26.2241 Z" id="Fill-29" fill="#000000"></path>
                    <path d="M321.49,30.923 L329.541,30.923 L329.541,29.64 L321.49,29.64 L321.49,30.923 Z M329.541,26.202 L332.392,26.202 L332.392,33.143 L318.64,33.143 L318.64,26.202 L321.49,26.202 L321.49,27.508 L329.541,27.508 L329.541,26.202 Z M329.454,15.845 L318.575,15.845 L318.575,13.669 L332.283,13.669 L332.283,18.87 L321.447,18.87 L321.447,19.958 L332.674,19.958 L332.674,22.134 L318.618,22.134 L318.618,16.846 L329.454,16.846 L329.454,15.845 Z M316.355,25.376 L334.502,25.376 L334.502,23.112 L316.355,23.112 L316.355,25.376 Z" id="Fill-30" fill="#000000"></path>
                    <path d="M350.228,33.361 L353.1,33.361 L353.1,13.321 L350.228,13.321 L350.228,33.361 Z M340.262,25.985 C342.895,25.92 345.746,25.702 348.683,25.114 L348.987,27.508 C345.571,28.226 342.242,28.443 339.196,28.443 L337.412,28.443 L337.412,15.236 L340.262,15.236 L340.262,25.985 Z" id="Fill-31" fill="#000000"></path>
                    <path d="M374.984,23.1121 L372.068,23.1121 L372.068,33.4261 L369.196,33.4261 L369.196,13.3421 L372.068,13.3421 L372.068,20.7411 L374.984,20.7411 L374.984,23.1121 Z M360.014,26.2241 C362.864,26.1801 365.236,26.0281 367.825,25.5921 L368.108,27.9651 C365.084,28.5081 362.342,28.6181 358.86,28.6181 L357.142,28.6181 L357.142,15.1921 L366.498,15.1921 L366.498,17.5201 L360.014,17.5201 L360.014,26.2241 Z" id="Fill-32" fill="#000000"></path>
                </g>
            </g>
        </g>
    </g>
</svg>